<svg width="65" height="65" viewBox="0 0 24 24" role="presentation" xmlns="http://www.w3.org/2000/svg"><path d="M5.76 5.737c-.927.015-2.637.48-3.419 3.722-.34 1.413-.472 2.886-.18 4.639a17.989 17.989 0 001.065 3.781c.11.265.282.542.414.712.381.489 1.015.457 1.281.324.29-.145.624-.496.504-1.296-.059-.387-.227-.953-.322-1.267-.29-.966-.678-2.13-.712-2.96-.045-1.11.386-1.255.672-1.319.48-.107.884.43 1.267 1.102.457.802 1.24 2.224 1.88 3.31.576.98 1.64 2.03 3.35 1.959 1.743-.074 3.028-.75 3.69-2.877.495-1.591.832-2.78 1.375-3.999.625-1.4 1.458-2.15 2.16-1.921.651.212.814.86.822 1.81.007.842-.09 1.77-.163 2.45-.028.248-.076.745-.057 1.022.04.543.271 1.085.873 1.172.64.092 1.155-.428 1.36-1.058a5.94 5.94 0 00.188-.896c.188-1.36.237-2.274.152-3.665-.1-1.626-.413-3.11-.96-4.393-.522-1.228-1.362-2.014-2.439-2.084-1.192-.077-2.56.727-3.278 2.286-.661 1.438-1.19 2.914-1.512 3.667-.325.763-.804 1.234-1.54 1.313-.899.096-1.674-.568-2.242-1.514-.495-.824-1.476-2.395-2-2.922-.494-.496-1.057-1.116-2.23-1.098z" fill="#0B9CEA"></path></svg>