<svg width="40" height="40" viewBox="0 0 40 40" fill="none" xmlns="http://www.w3.org/2000/svg">
<g clip-path="url(#clip0_861_30087)">
<rect width="40" height="40" rx="20" fill="#019BEF" style="fill:#019BEF;fill:color(display-p3 0.0039 0.6078 0.9373);fill-opacity:1;"/>
<path fill-rule="evenodd" clip-rule="evenodd" d="M15.9725 29.8742H22.5103C25.4431 29.8742 28.3254 29.8742 28.7036 29.877C29.4151 29.8742 29.8576 29.4316 29.8576 28.7201V15.9386C29.8576 15.7902 29.7988 15.6473 29.6952 15.5437L24.4907 10.3252C24.3842 10.2187 24.2414 10.1599 24.0929 10.1599C21.3338 10.1599 16.6896 10.1599 15.9697 10.1655C15.2442 10.1655 14.7932 10.6137 14.7932 11.3364V12.1189C13.4202 12.2084 12.3284 12.6352 11.5467 13.3896C10.6279 14.2776 10.1602 15.5941 10.1602 17.2972C10.1602 19.0002 10.6279 20.3168 11.5467 21.2047C12.3284 21.9592 13.4202 22.386 14.7932 22.4755V28.6865C14.7932 29.0535 14.8997 29.342 15.1069 29.5549C15.3142 29.7678 15.6055 29.8742 15.9725 29.8742ZM15.9137 11.3364V12.1165C17.3771 12.1997 18.4721 12.62 19.2498 13.3952C20.1237 14.2664 20.5495 15.5437 20.5495 17.2972C20.5495 19.003 20.0817 20.3168 19.163 21.2047C18.3787 21.9593 17.2885 22.3861 15.9137 22.4755V28.6893C15.9137 28.7117 15.9137 28.7313 15.9165 28.7537C15.9224 28.7537 15.9294 28.7543 15.9375 28.7548L15.9375 28.7549C15.9483 28.7556 15.9609 28.7565 15.9753 28.7565H28.7344V28.7201V16.4988H26.1153C25.2582 16.4988 24.5663 16.1739 24.1153 15.5605C23.7316 15.0395 23.5355 14.3392 23.5327 13.482V11.2804C20.7454 11.2804 16.6431 11.2805 15.9725 11.2832C15.9501 11.2832 15.9305 11.2832 15.9165 11.286C15.9165 11.2921 15.9159 11.2983 15.9153 11.3052L15.9153 11.3052V11.3052C15.9145 11.314 15.9137 11.3239 15.9137 11.3364ZM24.6923 12.1151L24.6532 12.0759V13.4764C24.6532 14.0843 24.7792 14.5745 25.0173 14.8938C25.2554 15.2131 25.6139 15.3756 26.1153 15.3756H27.9416L24.6923 12.1151ZM18.4571 14.1879C17.8127 13.5435 16.8161 13.2296 15.4079 13.2217C15.39 13.2234 15.3718 13.2243 15.3534 13.2243C15.3351 13.2243 15.317 13.2234 15.2992 13.2217C12.5963 13.2393 11.2806 14.573 11.2806 17.2972C11.2806 20.0395 12.6139 21.3728 15.3534 21.3728C18.0929 21.3728 19.4263 20.0395 19.4263 17.2972C19.4263 15.8574 19.1097 14.8406 18.4571 14.1879ZM18.6307 26.3308H26.824C27.1349 26.3308 27.3842 26.0787 27.3842 25.7706C27.3842 25.4624 27.1321 25.2103 26.824 25.2103H18.6307C18.3226 25.2103 18.0705 25.4624 18.0705 25.7706C18.0705 26.0787 18.3226 26.3308 18.6307 26.3308ZM26.824 23.0535H19.7232C19.4151 23.0535 19.163 22.8014 19.163 22.4932C19.163 22.1851 19.4151 21.933 19.7232 21.933H26.824C27.1321 21.933 27.3842 22.1851 27.3842 22.4932C27.3842 22.8014 27.1349 23.0535 26.824 23.0535ZM21.9081 19.2299H26.824C27.1349 19.2299 27.3842 18.9778 27.3842 18.6697C27.3842 18.3616 27.1321 18.1095 26.824 18.1095H21.9081C21.5999 18.1095 21.3478 18.3616 21.3478 18.6697C21.3478 18.9778 21.5999 19.2299 21.9081 19.2299ZM15.7736 19.9379V20.3084C15.7736 20.5381 15.5859 20.7285 15.3534 20.7285C15.1209 20.7285 14.9333 20.5409 14.9333 20.3084V19.9435C14.4918 19.8808 14.0686 19.7169 13.698 19.4596C13.5663 19.3672 13.5019 19.2439 13.5019 19.0955C13.5047 18.8658 13.6896 18.6837 13.9193 18.6837C14.0145 18.6865 14.1069 18.7145 14.1854 18.7678C14.4336 18.9327 14.6841 19.047 14.9333 19.1088V17.5682C13.8583 17.3388 13.6223 16.6633 13.6223 16.1179C13.6223 15.2952 14.1244 14.7224 14.9333 14.5771V14.1067C14.9333 13.8742 15.1209 13.6865 15.3534 13.6865C15.5859 13.6865 15.7736 13.8742 15.7736 14.1067V14.5695C16.1266 14.6187 16.4534 14.73 16.7204 14.8938C16.9249 15.0199 16.9557 15.1851 16.9557 15.272C16.9557 15.4932 16.7736 15.6753 16.5523 15.6753C16.4683 15.6725 16.387 15.6501 16.3142 15.6109L16.3086 15.6081C16.1262 15.5083 15.9508 15.4389 15.7736 15.397V16.8527C16.9812 17.0544 17.2414 17.7726 17.2414 18.3504C17.2414 18.8294 17.0649 19.2355 16.7344 19.5241C16.4897 19.7361 16.1619 19.8769 15.7736 19.9379ZM15.7736 17.7042V19.1158C16.1771 19.0137 16.4151 18.7506 16.4151 18.3784C16.4151 18.1096 16.3282 17.8448 15.7736 17.7042ZM14.9333 15.4086C14.6247 15.5134 14.4487 15.749 14.4487 16.0815C14.4487 16.2352 14.4487 16.5235 14.9333 16.6971V15.4086Z" fill="white" style="fill:white;fill-opacity:1;"/>
</g>
<defs>
<clipPath id="clip0_861_30087">
<rect width="40" height="40" rx="4" fill="white" style="fill:white;fill-opacity:1;"/>
</clipPath>
</defs>
</svg>
